<?xml version="1.0" standalone="no"?>
<!DOCTYPE svg PUBLIC "-//W3C//DTD SVG 20010904//EN"
 "http://www.w3.org/TR/2001/REC-SVG-20010904/DTD/svg10.dtd">
<svg version="1.0" xmlns="http://www.w3.org/2000/svg"
 width="50.000000pt" height="50.000000pt" viewBox="0 0 50.000000 50.000000"
 preserveAspectRatio="xMidYMid meet">

<g transform="translate(0.000000,50.000000) scale(0.100000,-0.100000)"
fill="#000000" stroke="none">
<path d="M125 428 c-57 -20 -105 -81 -105 -133 0 -29 21 -75 44 -94 13 -11 13
-17 0 -53 l-14 -40 43 25 c52 30 112 27 139 -9 23 -28 74 -46 125 -43 21 2 48
-3 60 -9 31 -17 36 -15 29 13 -4 16 1 36 14 57 11 18 20 44 20 58 0 40 -37 89
-80 108 -22 9 -49 32 -62 52 -43 65 -137 95 -213 68z m128 -22 c18 -7 46 -28
61 -47 l28 -33 -32 -9 c-67 -17 -110 -65 -110 -123 0 -25 -2 -26 -39 -20 -23
3 -42 2 -46 -4 -10 -16 -25 -12 -19 5 4 9 -7 30 -25 50 -40 46 -41 91 -4 136
47 56 119 73 186 45z m147 -121 c60 -31 77 -91 40 -138 -11 -14 -20 -29 -20
-34 0 -5 -26 -10 -58 -11 -68 -3 -120 24 -136 71 -30 83 86 158 174 112z"/>
<path d="M114 349 c-10 -17 13 -36 27 -22 12 12 4 33 -11 33 -5 0 -12 -5 -16
-11z"/>
<path d="M234 349 c-10 -17 13 -36 27 -22 12 12 4 33 -11 33 -5 0 -12 -5 -16
-11z"/>
<path d="M280 225 c0 -8 7 -15 15 -15 8 0 15 7 15 15 0 8 -7 15 -15 15 -8 0
-15 -7 -15 -15z"/>
<path d="M370 225 c0 -8 7 -15 15 -15 8 0 15 7 15 15 0 8 -7 15 -15 15 -8 0
-15 -7 -15 -15z"/>
</g>
</svg>
